Coordinates
version=1
nRows=11
nColumns=63
inDegrees=yes

Units are S.I. units (second, meters, Newtons, ...)
If the header above contains a line with 'inDegrees', this indicates whether rotational values are in degrees (yes) or radians (no).

endheader
time	pelvis_tilt	pelvis_list	pelvis_rotation	pelvis_tx	pelvis_ty	pelvis_tz	hip_flexion_r	hip_adduction_r	hip_rotation_r	knee_angle_r	knee_angle_r_beta	ankle_angle_r	subtalar_angle_r	mtp_angle_r	hip_flexion_l	hip_adduction_l	hip_rotation_l	knee_angle_l	knee_angle_l_beta	ankle_angle_l	subtalar_angle_l	mtp_angle_l	L5_S1_Flex_Ext	L5_S1_Lat_Bending	L5_S1_axial_rotation	L4_L5_Flex_Ext	L4_L5_Lat_Bending	L4_L5_axial_rotation	L3_L4_Flex_Ext	L3_L4_Lat_Bending	L3_L4_axial_rotation	L2_L3_Flex_Ext	L2_L3_Lat_Bending	L2_L3_axial_rotation	L1_L2_Flex_Ext	L1_L2_Lat_Bending	L1_L2_axial_rotation	L1_T12_Flex_Ext	L1_T12_Lat_Bending	L1_T12_axial_rotation	Abs_r3	Abs_r2	Abs_r1	Abs_t1	Abs_t2	neck_flexion	neck_bending	neck_rotation	arm_flex_r	arm_add_r	arm_rot_r	elbow_flex_r	pro_sup_r	wrist_flex_r	wrist_dev_r	arm_flex_l	arm_add_l	arm_rot_l	elbow_flex_l	pro_sup_l	wrist_flex_l	wrist_dev_l
      0.00000000	      4.77187926	     -3.70831610	    102.49206917	     -0.13309765	      0.77563756	      0.62321271	     -1.59665992	      1.76416094	    -12.94294508	      3.60656286	      0.06294640	     20.92017381	      2.43290697	      0.00000000	      1.01226875	     -3.15486600	      8.04010320	      1.68186884	      0.02935415	     28.67093463	      9.94536836	      0.00000000	      0.19319347	      0.64718114	     -1.52948678	      0.35877959	      0.86075091	     -1.62507971	      0.31739755	      1.57355621	     -1.62507971	      0.22080081	      1.57355621	     -1.33830094	      0.17939945	      1.31973177	     -1.24270801	      0.11039075	      1.00248358	     -1.14711509	      1.37996162	      7.32104244	     -8.50654665	      0.00000000	      0.00000000	     27.66035273	     -3.07321249	      0.87192267	     14.27623023	     -8.53014303	     53.87306338	     38.67843826	     52.53530658	      1.28369594	     16.60766856	     17.27011287	     -0.81062402	     63.41008901	     32.60050974	     56.56404176	     -6.87070194	      1.43279786
      0.01694915	      4.78911842	     -3.68538090	    102.23609108	     -0.13170498	      0.77517448	      0.62400090	     -1.72278042	      1.89786111	    -13.14885903	      3.46344201	      0.06044847	     20.53098154	      2.41614600	      0.00000000	      1.04776057	     -3.22353534	      7.86102433	      1.81774092	      0.03172556	     28.30228344	      9.72356783	      0.00000000	      0.19842177	      0.65008657	     -1.53245083	      0.36848907	      0.86461514	     -1.62822901	      0.32598713	      1.58062049	     -1.62822901	      0.22677624	      1.58062049	     -1.34089448	      0.18425446	      1.32565654	     -1.24511630	      0.11337820	      1.00698410	     -1.14933812	      1.41730686	      7.35390933	     -8.52303178	      0.00000000	      0.00000000	     27.47699036	     -3.32633197	      0.98881470	     14.24591801	     -8.30061987	     53.39004121	     38.73895300	     52.51237044	      1.02146217	     16.29428443	     17.27579895	     -1.14074913	     63.62203304	     32.69691190	     56.79905922	     -6.84755767	      1.30314556
      0.03389831	      4.75665232	     -3.74871419	    102.03758748	     -0.13020947	      0.77479521	      0.62434573	     -1.90883923	      1.99459176	    -13.06359083	      2.95306229	      0.05154066	     20.25032145	      2.48421858	      0.00000000	      1.12236519	     -3.24001085	      7.97738126	      1.89441789	      0.03306383	     28.00706986	      9.26918565	      0.00000000	      0.21502004	      0.64097992	     -1.50495873	      0.39931372	      0.85250330	     -1.59901865	      0.35325643	      1.55847858	     -1.59901865	      0.24574641	      1.55847858	     -1.31683889	      0.19966761	      1.30708626	     -1.22277897	      0.12286245	      0.99287790	     -1.12871905	      1.53586667	      7.25089308	     -8.37012897	      0.00000000	      0.00000000	     27.38695888	     -3.60232131	      1.15770975	     13.84901272	     -7.99317767	     52.24908633	     38.88506626	     52.61340620	      0.24555166	     15.80702068	     17.45379827	     -1.44126092	     64.46536046	     32.64670945	     57.60094116	     -6.81852535	      0.95918662
      0.05084746	      4.65310990	     -3.73848452	    101.92980407	     -0.12906851	      0.77450162	      0.62428215	     -2.32438184	      2.15847381	     -9.02819180	      2.04831949	      0.03574992	     18.98535775	     -3.15059642	      0.00000000	      0.90190919	     -3.12911361	     12.67488458	      1.56620350	      0.02733541	     26.72377953	      2.84259915	      0.00000000	      0.22040884	      0.61544490	     -1.42604881	      0.40932127	      0.81854172	     -1.51517686	      0.36210969	      1.49639274	     -1.51517686	      0.25190527	      1.49639274	     -1.24779271	      0.20467165	      1.25501524	     -1.15866466	      0.12594161	      0.95332415	     -1.06953661	      1.57435834	      6.96203582	     -7.93125565	      0.00000000	      0.00000000	     27.32204374	     -3.73593021	      0.46357147	     12.86714122	     -7.72904372	     48.99570467	     39.55570345	     55.77890888	      0.17485001	     16.62757772	     17.85767390	     -1.50679599	     65.60529985	     32.18023322	     61.79581351	     -6.99202164	      0.50673489
      0.06779661	      4.59918153	     -3.79524008	    102.01423184	     -0.12817737	      0.77449598	      0.62478914	     -2.34914031	      2.17545496	     -9.09489586	      1.80449344	      0.03149435	     19.02962878	     -3.23820641	      0.00000000	      1.02395450	     -3.10551406	     12.60433386	      1.65657643	      0.02891271	     26.44187546	      3.00152094	      0.00000000	      0.22244763	      0.59829960	     -1.44948249	      0.41310750	      0.79573847	     -1.54007515	      0.36545922	      1.45470565	     -1.54007515	      0.25423540	      1.45470565	     -1.26829718	      0.20656487	      1.22005255	     -1.17770453	      0.12710658	      0.92676608	     -1.08711187	      1.58892120	      6.76808476	     -8.06158679	      0.00000000	      0.00000000	     27.27794833	     -3.59125034	      0.57726538	     12.83514170	     -7.55943951	     48.75027026	     39.65624590	     55.24323356	     -0.24412980	     16.60319817	     18.29905210	     -1.73354326	     67.08696968	     31.94546222	     61.72073095	     -6.97476532	      0.07036355
      0.08474576	      4.53874612	     -3.86285594	    102.07712953	     -0.12730172	      0.77452073	      0.62508048	     -2.39191054	      2.19481132	     -8.19228202	      1.46226020	      0.02552125	     18.91179348	     -4.52113234	      0.00000000	      1.13256100	     -3.06357018	     12.93375004	      1.69717585	      0.02962131	     26.13420718	      2.56583055	      0.00000000	      0.22519084	      0.57843025	     -1.46418164	      0.41820191	      0.76931224	     -1.55569299	      0.36996603	      1.40639532	     -1.55569299	      0.25737061	      1.40639532	     -1.28115894	      0.20911221	      1.17953497	     -1.18964758	      0.12867405	      0.89598846	     -1.09813623	      1.60851565	      6.54331872	     -8.14333903	      0.00000000	      0.00000000	     27.27151186	     -3.42053791	      0.61654784	     12.74180028	     -7.39504930	     48.35992953	     39.75352742	     55.07216129	     -0.41519559	     16.64745049	     18.65650712	     -1.96643784	     68.33842217	     31.79919025	     61.87446066	     -6.95103581	     -0.28789060
      0.10169492	      4.45148014	     -3.90708393	    101.65705704	     -0.12606229	      0.77457653	      0.62504145	     -2.49541406	      2.20481686	     -3.79624980	      0.96608415	      0.01686135	     17.64298496	    -10.10815254	      0.00000000	      1.03215652	     -2.96090361	     14.96227498	      1.48915456	      0.02599065	     25.38871214	     -0.89241464	      0.00000000	      0.22154875	      0.55654364	     -1.37716315	      0.41143819	      0.74020304	     -1.46323585	      0.36398245	      1.35318020	     -1.46323585	      0.25320807	      1.35318020	     -1.20501776	      0.20573017	      1.13490378	     -1.11894506	      0.12659296	      0.86208609	     -1.03287236	      1.58250060	      6.29573291	     -7.65936830	      0.00000000	      0.00000000	     27.30144052	     -3.38647832	      0.29820666	     12.62709968	     -7.28723004	     47.92129521	     39.85715886	     55.20492394	     -0.51433587	     16.72402504	     18.60962143	     -2.15849584	     67.96637731	     32.05140664	     63.95492437	     -7.18625663	      0.26360862
      0.11864407	      4.42690332	     -3.87995121	    101.80686124	     -0.12567297	      0.77485224	      0.62541468	     -2.49009410	      2.18701568	     -5.34402189	      0.92326006	      0.01611393	     18.48523489	     -7.71281719	      0.00000000	      1.13950437	     -2.94528321	     14.03566037	      1.60821395	      0.02806863	     25.68004310	      0.51470095	      0.00000000	      0.20914807	      0.54439886	     -1.41415255	      0.38840888	      0.72405049	     -1.50253709	      0.34360937	      1.32365139	     -1.50253709	      0.23903533	      1.32365139	     -1.23738348	      0.19421490	      1.11013816	     -1.14899895	      0.11950721	      0.84327384	     -1.06061441	      1.49392376	      6.15834880	     -7.86509225	      0.00000000	      0.00000000	     27.30977326	     -3.25373018	      0.19245563	     12.80170983	     -7.22485199	     48.27375898	     39.76287461	     54.33873789	     -0.77049307	     16.64343188	     18.63944525	     -2.32180017	     68.06800595	     32.18759766	     62.99834289	     -7.10663485	      0.55275882
      0.13559322	      4.30265935	     -3.97907617	    101.93249764	     -0.12511933	      0.77491875	      0.62575775	     -2.39188845	      2.09046897	     -4.09354143	      0.80752043	      0.01409389	     18.35476849	     -9.51308562	      0.00000000	      1.28499282	     -2.81064176	     14.34652479	      1.53821853	      0.02684698	     25.63716713	      0.33388361	      0.00000000	      0.21943048	      0.51426589	     -1.39039436	      0.40750434	      0.68397364	     -1.47729401	      0.36050233	      1.25038609	     -1.47729401	      0.25078709	      1.25038609	     -1.21659507	      0.20376314	      1.04869101	     -1.12969542	      0.12538258	      0.79659787	     -1.04279577	      1.56736997	      5.81747862	     -7.73295633	      0.00000000	      0.00000000	     27.28293331	     -3.05950359	     -0.06459061	     12.86327665	     -7.19694126	     48.52725462	     39.61770776	     53.30093369	     -0.68980537	     16.53817136	     19.19756652	     -2.45313262	     70.02276879	     31.88248154	     68.06573407	     -8.14920959	     -0.62990372
      0.15254237	      4.20469332	     -4.00907898	    101.61403603	     -0.12428194	      0.77499968	      0.62571683	     -2.37544372	      2.01528676	     -1.51610763	      0.66251377	      0.01156305	     17.68793191	    -12.64339377	      0.00000000	      1.23681422	     -2.69706603	     15.07181284	      1.40218840	      0.02447280	     25.44896820	     -1.27583648	      0.00000000	      0.21755197	      0.49462111	     -1.34774722	      0.40401577	      0.65784608	     -1.43198142	      0.35741614	      1.20262177	     -1.43198142	      0.24864015	      1.20262177	     -1.17927882	      0.20201876	      1.00863137	     -1.09504462	      0.12430920	      0.76616810	     -1.01081042	      1.55395200	      5.59525293	     -7.49576573	      0.00000000	      0.00000000	     27.26166649	     -3.02349592	     -0.25739671	     13.20186977	     -7.19571669	     49.79639445	     39.38555658	     51.90411949	     -0.93456563	     16.36431551	     18.42667387	     -2.55524835	     66.75826283	     32.39870674	     74.19060666	     -7.57536304	      1.10844211
      0.16949153	      4.15354225	     -4.00986893	    101.67267662	     -0.12401452	      0.77511458	      0.62586295	     -2.36432194	      1.97891235	     -1.69306231	      0.64516409	      0.01126024	     17.91947929	    -12.26284818	      0.00000000	      1.26420553	     -2.63904660	     15.29932801	      1.39187632	      0.02429282	     25.46941687	     -1.58965916	      0.00000000	      0.21479762	      0.48183055	     -1.35617556	      0.39890066	      0.64083464	     -1.44093653	      0.35289101	      1.17152281	     -1.44093653	      0.24549220	      1.17152281	     -1.18665362	      0.19946107	      0.98254887	     -1.10189264	      0.12273536	      0.74635553	     -1.01713167	      1.53427791	      5.45056359	     -7.54264162	      0.00000000	      0.00000000	     27.24626834	     -2.94135144	     -0.38436642	     13.62026493	     -7.26466410	     51.34521659	     39.05058719	     50.54525477	     -0.83963683	     16.11522010	     18.16406692	     -2.49869117	     65.85141215	     32.34343416	     76.69417328	     -6.94314283	      1.58752621
